<?xml version="1.0" standalone="no"?><!DOCTYPE svg PUBLIC "-//W3C//DTD SVG 1.1//EN" "http://www.w3.org/Graphics/SVG/1.1/DTD/svg11.dtd"><svg t="1654323460538" class="icon" viewBox="0 0 1024 1024" version="1.1" xmlns="http://www.w3.org/2000/svg" p-id="2293" xmlns:xlink="http://www.w3.org/1999/xlink" width="200" height="200"><defs><style type="text/css"></style></defs><path d="M854.569 241.672l-138.1 0 0-61.228c0-46.616-40.144-87.515-85.906-87.515l-235.8 0c-45.982 0-86.323 40.898-86.323 87.515l0 61.228-138.1 0c-14.097 0-25.514 11.436-25.514 25.531l0 538.151c0 70.005 54.082 126.984 120.571 126.984l494.511 0c66.273 0 120.194-56.98 120.194-126.984l0-538.151c0.001-14.095-11.434-25.531-25.531-25.531zM359.502 180.443c0-18.067 17.788-36.451 35.261-36.451l235.8 0c17.609 0 34.882 18.067 34.882 36.451l0 61.228-305.944 0 0-61.228zM308.439 292.735l0 82.433c-7.425 7.187-12.071 17.232-12.071 28.39 0 21.879 17.77 39.668 39.668 39.668 21.879 0 39.628-17.789 39.628-39.668 0-13.064-6.392-24.579-16.162-31.807l0-79.016 305.944 0 0 79.016c-9.787 7.227-16.2 18.742-16.2 31.807 0 21.879 17.748 39.668 39.646 39.668 21.899 0 39.648-17.789 39.648-39.668 0-11.158-4.647-21.203-12.071-28.39l0-82.433 112.589 0 0 457.902-633.19 0 0-457.902 112.571 0zM759.907 881.273l-494.511 0c-38.337 0-69.528-34.028-69.528-75.92l0-10.086 633.19 0 0 10.086c-0.001 41.892-31.031 75.92-69.152 75.92z" p-id="2294" fill="#a84ba1"></path></svg>